# Blender v2.78 (sub 0) OBJ File: ''
# www.blender.org
o Ship_Plane
v -2.453707 -0.700687 -0.195163
v -3.096668 -0.309570 -1.398915
v -2.305736 0.050834 -3.079802
v -1.844061 -0.099471 -2.671011
v -1.382387 -0.249775 -2.292489
v -0.920713 -0.400079 -1.929102
v -0.459038 -0.496238 -1.671658
v 0.002636 -0.583339 -1.414214
v 0.004932 -0.700687 -0.195163
v 2.689819 0.845427 -0.195163
v 3.914170 1.487526 -2.292779
v 2.699476 1.672601 -3.360098
v 2.160108 1.524195 -2.895248
v 1.620740 1.375791 -2.460667
v 1.081372 1.227386 -2.041220
v 0.542004 1.180017 -1.727717
v 0.002636 1.131869 -1.414214
v -2.204796 1.492701 -3.607198
v -1.135136 1.149721 -4.182425
v -1.132969 0.910277 -4.180258
v -1.130802 0.670833 -4.178091
v -1.128635 0.431389 -4.175923
v -1.126468 0.325801 -4.173756
v -2.199017 0.366115 -3.601419
v -0.229738 -1.128436 3.840326
v -0.382182 -0.622695 3.848087
v -2.684547 -0.158460 -0.195163
v 2.464367 -0.700687 -0.195163
v 3.400210 -0.131408 -1.947248
v 4.790730 1.121453 -4.786682
v 2.689819 -0.158460 -0.195163
v 1.046909 0.325801 -4.173757
v 1.044742 0.431389 -4.175924
v 1.042574 0.670833 -4.178091
v 1.040407 0.910277 -4.180258
v 1.038240 1.149721 -4.182425
v 2.141956 1.492701 -3.607198
v 2.147737 0.366115 -3.601420
v -4.780070 1.121453 -4.786682
v 0.332585 -0.622695 3.848087
v -2.684547 0.845427 -0.195163
v -0.008869 0.845427 -0.195163
v 0.208876 -1.128436 3.840326
v 0.489509 -0.488034 -1.689840
v 0.976383 -0.383671 -1.965466
v 1.463256 -0.225163 -2.347035
v 1.950130 -0.066655 -2.743740
v 2.437003 0.091854 -3.170713
v -0.053917 0.017776 -3.699177
v -0.065476 0.806741 -3.710734
v 0.002823 -1.124660 3.804698
v 0.005330 -1.272116 4.840446
v -2.698568 1.673939 -3.363247
v -2.158327 1.525267 -2.897767
v -1.618087 1.376594 -2.462556
v -1.077846 1.227922 -2.042480
v -0.537605 1.180284 -1.728347
v -3.847259 1.455200 -2.187177
v -5.226747 2.187410 -4.786681
v 5.232019 2.187410 -4.786682
v 0.001748 -0.540990 3.823996
v -0.046281 0.910277 -4.298041
v -0.892441 0.910277 -4.664569
v -0.885701 0.431389 -4.660234
v -0.041946 0.431389 -4.293707
v 0.804214 0.431389 -4.660235
v 0.797473 0.910277 -4.664569
v -0.045529 0.827293 -5.680872
v -0.399153 0.670833 -5.679456
v -0.042697 0.514373 -5.678040
v 0.310925 0.670833 -5.679456
v -5.336766 1.374775 -5.076198
v -4.245925 1.374775 -5.064090
v -4.245925 2.187410 -5.064089
v -5.336766 2.187410 -5.076198
v 4.344399 1.374775 -5.038864
v 5.382682 1.374775 -5.050972
v 5.382682 2.187410 -5.050972
v 4.344399 2.187410 -5.038864
v -5.722183 1.637560 -5.920714
v -5.069317 1.637560 -5.920714
v -5.722183 2.450194 -5.920714
v -5.069317 2.450194 -5.920714
v 5.378020 2.450194 -5.895489
v 5.378020 1.637560 -5.895489
v 5.908252 2.450194 -5.895487
v 5.908252 1.637560 -5.895487
v 4.088622 2.004149 -4.786682
v 4.088622 1.121453 -4.786682
v -4.083350 2.004149 -4.786681
v -4.083350 1.121453 -4.786681
v -5.833874 2.149008 -6.231686
v -5.228978 2.149008 -6.224971
v -5.228978 2.563514 -6.224971
v -5.833874 2.563514 -6.231686
v -6.047597 2.294728 -6.699989
v -5.685568 2.294728 -6.699991
v -6.047597 2.709234 -6.699989
v -5.685568 2.709234 -6.699991
v 5.564199 2.169325 -6.212934
v 6.108200 2.169325 -6.219278
v 6.108200 2.551233 -6.219278
v 5.564199 2.551233 -6.212934
v 6.105758 2.688918 -6.661758
v 6.105758 2.307009 -6.661758
v 6.383569 2.688918 -6.661757
v 6.383569 2.307009 -6.661757
v 0.310924 0.660133 -6.024211
v 0.183866 0.654804 -6.613067
v -0.045023 0.755271 -6.613976
v -0.045530 0.816593 -6.025627
v -0.399153 0.660133 -6.024210
v -0.042698 0.503672 -6.022795
v -0.043205 0.554336 -6.612158
v -0.272096 0.654804 -6.613067
v -0.006312 0.495477 0.773080
v 0.584769 0.266010 1.368524
v -0.001175 -0.029699 2.717535
v -0.577810 0.119032 2.244473
v -0.578074 0.266010 1.368523
v 0.584313 0.122281 2.242554
v 0.003251 0.370910 2.243514
v 0.003347 0.693867 1.368524
vt 0.5012 0.3306
vt 0.5068 0.3361
vt 0.5098 0.3824
vt 0.5362 0.3354
vt 0.5395 0.3356
vt 0.5316 0.3406
vt 0.5186 0.2984
vt 0.5185 0.2985
vt 0.4819 0.2895
vt 0.5268 0.3454
vt 0.5096 0.4272
vt 0.5298 0.3381
vt 0.5294 0.3405
vt 0.5283 0.3404
vt 0.9999 0.8199
vt 0.9055 0.8199
vt 0.5294 0.3340
vt 0.4734 0.3617
vt 0.3350 0.2467
vt 0.5275 0.3455
vt 0.6687 0.8198
vt 0.5402 0.3471
vt 0.5502 0.3398
vt 0.5272 0.3454
vt 0.5229 0.3358
vt 0.5254 0.3356
vt 0.4928 0.3232
vt 0.5136 0.3037
vt 0.5342 0.3355
vt 0.5326 0.3341
vt 0.5289 0.3294
vt 0.5203 0.3196
vt 0.5271 0.3453
vt 0.5271 0.3454
vt 0.5270 0.3453
vt 0.5209 0.2961
vt 0.5329 0.3146
vt 0.9592 0.8199
vt 0.5893 0.3283
vt 0.5897 0.2906
vt 0.8594 0.0001
vt 0.5363 0.1959
vt 0.0001 0.0001
vt 0.5327 0.3356
vt 0.5321 0.3371
vt 0.5319 0.3364
vt 0.5651 0.2482
vt 0.5291 0.3351
vt 0.5317 0.3362
vt 0.4793 0.3119
vt 0.5272 0.3456
vt 0.0000 0.0000
vt 1.0000 1.0000
vt 0.0000 1.0000
vt 0.0000 0.0000
vt 1.0000 0.0000
vt 1.0000 1.0000
vt 1.0000 0.0000
vt 1.0000 1.0000
vt 0.0000 0.0000
vt 1.0000 0.0000
vt 0.0000 0.0000
vt 1.0000 0.0000
vt 1.0000 0.0000
vt 1.0000 1.0000
vt 1.0000 1.0000
vt 0.0000 0.0000
vt 1.0000 0.0000
vt 1.0000 1.0000
vt 0.0000 0.0000
vt 0.0000 0.0000
vt 1.0000 1.0000
vt 1.0000 0.0000
vt 0.0000 1.0000
vt 1.0000 0.0000
vt 0.0000 1.0000
vt 0.0000 0.0000
vt 0.0000 0.0000
vt 1.0000 1.0000
vt 0.0000 1.0000
vt 1.0000 0.0000
vt 0.0000 1.0000
vt 0.0000 0.0000
vt 1.0000 0.0000
vt 0.0000 1.0000
vt 0.0000 0.0000
vt 1.0000 1.0000
vt 0.0000 1.0000
vt 0.0000 0.0000
vt 1.0000 1.0000
vt 0.0000 1.0000
vt 0.0000 0.0000
vt 1.0000 1.0000
vt 0.0000 1.0000
vt 1.0000 0.0000
vt 0.0000 1.0000
vt 0.0000 0.0000
vt 1.0000 0.0000
vt 0.0000 1.0000
vt 1.0000 0.0000
vt 0.0000 1.0000
vt 0.0000 1.0000
vt 0.0000 0.0000
vt 1.0000 0.0000
vt 0.0000 0.0000
vt 0.5318 0.3363
vt 0.5317 0.3362
vt 0.3749 0.1826
vt 0.3774 0.2391
vt 0.5231 0.2399
vt 1.0000 0.0000
vt 0.0000 1.0000
vt 0.0000 0.0000
vt 1.0000 0.0000
vt 0.0000 1.0000
vt 0.0000 0.0000
vt 1.0000 0.0000
vt 0.0000 1.0000
vt 0.0000 0.0000
vt 1.0000 1.0000
vt 0.0000 1.0000
vt 0.0000 0.0000
vt 1.0000 1.0000
vt 0.0000 1.0000
vt 1.0000 0.0000
vt 0.0000 1.0000
vt 1.0000 0.0000
vt 0.0000 1.0000
vt 0.0000 0.0000
vt 0.0000 0.0000
vt 1.0000 1.0000
vt 0.0000 1.0000
vt 1.0000 0.0000
vt 0.0000 1.0000
vt 0.0000 0.0000
vt 1.0000 0.0000
vt 0.0000 1.0000
vt 0.0000 1.0000
vt 0.0000 0.0000
vt 1.0000 0.0000
vt 0.0000 0.0000
vt 1.0000 0.0000
vt 0.0000 1.0000
vt 0.0000 0.0000
vt 1.0000 0.0000
vt 0.0000 0.0000
vt 0.0000 1.0000
vt 0.0000 0.0000
vt 1.0000 1.0000
vt 0.0000 1.0000
vt 0.0000 0.0000
vt 1.0000 1.0000
vt 0.0000 1.0000
vt 0.0000 0.0000
vt 1.0000 1.0000
vt 0.0000 1.0000
vt 1.0000 0.0000
vt 0.0000 1.0000
vt 0.5314 0.3453
vt 0.5288 0.3463
vt 0.5316 0.3502
vt 0.5299 0.3468
vt 0.5291 0.3478
vt 0.5298 0.3456
vt 0.5318 0.3472
vt 0.5343 0.3473
vt 0.5217 0.3432
vt 0.5131 0.3374
vt 0.5174 0.3382
vt 0.5438 0.3371
vt 0.5235 0.2926
vt 0.0001 0.8199
vt 0.5325 0.3302
vt 0.5204 0.3368
vt 0.5275 0.3353
vt 0.5620 0.3380
vt 1.0000 0.0000
vt 1.0000 1.0000
vt 1.0000 1.0000
vt 1.0000 0.0000
vt 1.0000 0.0000
vt 1.0000 1.0000
vt 1.0000 1.0000
vt 1.0000 1.0000
vt 1.0000 1.0000
vt 1.0000 1.0000
vt 1.0000 0.0000
vt 1.0000 0.0000
vt 1.0000 1.0000
vt 1.0000 1.0000
vt 1.0000 1.0000
vt 1.0000 1.0000
vt 1.0000 1.0000
vt 1.0000 1.0000
vt 1.0000 0.0000
vt 1.0000 0.0000
vn -0.1036 -0.9602 -0.2594
vn -0.0887 -0.9653 -0.2457
vn -0.0674 -0.9735 -0.2185
vn -0.0656 0.9647 0.2549
vn -0.0197 0.9755 0.2190
vn -0.0433 0.9702 0.2385
vn -0.4723 -0.0123 -0.8814
vn -0.4719 -0.0198 -0.8814
vn -0.4738 -0.0093 -0.8806
vn -0.8316 -0.3479 0.4328
vn -0.8545 -0.2711 0.4430
vn -0.8298 -0.3533 0.4320
vn 0.9095 -0.1976 0.3657
vn 0.8736 -0.3391 0.3490
vn 0.8664 -0.3602 0.3457
vn 0.4618 -0.0038 -0.8870
vn 0.4624 -0.0034 -0.8866
vn 0.4622 -0.0029 -0.8868
vn -0.8997 -0.2711 0.3421
vn -0.8732 -0.3467 0.3425
vn -0.9045 -0.2551 0.3417
vn 0.8639 -0.0000 0.5037
vn -0.8690 -0.0000 0.4948
vn 0.0000 0.9735 0.2287
vn 0.8302 -0.3367 0.4442
vn 0.8597 -0.2267 0.4577
vn 0.8616 -0.2178 0.4585
vn 0.0899 -0.9645 -0.2483
vn 0.1030 -0.9600 -0.2605
vn 0.0663 -0.9733 -0.2196
vn -0.0950 -0.9348 -0.3422
vn -0.1417 -0.9058 -0.3992
vn -0.1575 -0.9279 -0.3378
vn -0.2925 0.9557 -0.0329
vn -0.2917 0.9559 -0.0348
vn -0.2873 0.9573 -0.0327
vn 0.1475 -0.9312 -0.3332
vn 0.0907 -0.9518 -0.2929
vn 0.1041 -0.9502 -0.2937
vn 0.0003 -0.9900 -0.1409
vn 0.0000 -0.9900 -0.1409
vn -0.0055 -0.9900 -0.1409
vn 0.9581 -0.2368 0.1610
vn -0.9410 -0.2864 0.1800
vn 0.4022 -0.0046 -0.9155
vn 0.4028 -0.0066 -0.9153
vn -0.3898 -0.0119 -0.9208
vn -0.3901 -0.0193 -0.9206
vn -0.3913 -0.0169 -0.9201
vn 0.2371 0.9663 -0.1001
vn 0.2741 0.9591 -0.0705
vn 0.3030 0.9517 -0.0505
vn 0.0615 0.9688 0.2402
vn -0.0624 0.9690 0.2390
vn 0.0655 0.9647 0.2549
vn 0.0633 0.9672 0.2459
vn 0.0645 0.9656 0.2519
vn 0.1883 -0.9293 -0.3178
vn -0.2008 -0.9342 -0.2948
vn -0.1348 0.8042 0.5789
vn -0.3981 0.0041 0.9173
vn -0.3978 0.0033 0.9175
vn -0.3984 0.0047 0.9172
vn 0.0000 -1.0000 -0.0000
vn 0.0000 1.0000 0.0000
vn 0.0000 0.9967 -0.0814
vn -0.9008 -0.0166 -0.4339
vn -0.0000 -0.9967 -0.0813
vn 0.9009 0.0088 -0.4340
vn -0.3753 0.8447 -0.3817
vn 0.3732 0.8469 -0.3787
vn -0.3711 -0.8488 -0.3766
vn 0.3731 -0.8466 -0.3795
vn 0.3981 0.0125 0.9173
vn 0.3977 0.0133 0.9174
vn 0.3984 0.0119 0.9171
vn -0.0111 -0.0000 0.9999
vn 0.0117 -0.0000 0.9999
vn 0.0015 -0.9550 -0.2967
vn 0.0021 -0.9550 -0.2965
vn 0.0000 -0.9548 -0.2971
vn -0.9097 0.0000 0.4152
vn -0.0021 0.9550 0.2965
vn -0.0015 0.9550 0.2967
vn 0.0000 0.9548 0.2971
vn 0.7210 0.0000 -0.6930
vn -0.6381 0.0000 -0.7699
vn -0.6381 0.0000 -0.7700
vn 0.0000 0.0000 -1.0000
vn -0.0012 -0.9548 -0.2971
vn -0.0026 -0.9548 -0.2971
vn -0.0035 -0.9548 -0.2971
vn 0.0012 0.9548 0.2971
vn 0.0026 0.9548 0.2971
vn 0.8490 -0.0000 0.5284
vn 0.8738 -0.3315 0.3558
vn 0.9021 -0.2202 0.3711
vn 0.8822 -0.0613 0.4668
vn -0.1705 0.9834 0.0625
vn -0.2691 0.9623 -0.0384
vn -0.1578 0.9846 0.0752
vn -0.5190 -0.0055 -0.8548
vn -0.5185 -0.0018 -0.8551
vn -0.5192 -0.0070 -0.8546
vn 0.0002 -0.8434 -0.5372
vn 0.0000 -0.8434 -0.5373
vn 0.2898 0.9552 -0.0604
vn 0.1722 0.9832 0.0606
vn 0.1578 0.9846 0.0749
vn 0.5318 -0.0004 -0.8469
vn 0.5319 -0.0013 -0.8468
vn 0.5320 -0.0016 -0.8468
vn -0.9099 -0.0414 0.4128
vn -0.8673 -0.3259 0.3762
vn -0.0132 -0.8532 -0.5214
vn -0.0013 -0.8478 -0.5304
vn -0.0156 -0.8543 -0.5196
vn 0.4004 0.9114 -0.0946
vn 0.0000 0.0090 1.0000
vn 0.0000 -0.0090 -1.0000
vn 0.4031 -0.9118 -0.0787
vn -0.4031 0.9102 -0.0952
vn -0.4004 -0.9130 -0.0781
vn -0.0000 0.9383 0.3458
vn 0.0056 0.9384 0.3456
vn 0.0000 0.9377 0.3475
vn -0.1266 0.8954 0.4270
vn -0.1531 0.8954 0.4181
vn -0.1645 0.8952 0.4141
vn -0.0058 0.9384 0.3456
vn 0.1720 0.8924 0.4173
vn 0.1277 0.8933 0.4309
vn 0.1902 0.8914 0.4114
vn -0.4710 0.8567 0.2102
vn -0.5054 0.8299 0.2363
vn -0.3929 0.9069 0.1523
vn 0.3110 0.7245 0.6152
vn 0.5710 0.7760 -0.2678
vn -0.5738 0.7797 -0.2505
vn 0.5042 0.8308 0.2355
vn 0.4692 0.8580 0.2089
vn 0.3892 0.9089 0.1497
vn -0.3140 0.7266 0.6111
vn -0.0000 -0.9944 -0.1054
vn 0.1333 0.9129 0.3859
vn 0.0218 0.9532 0.3016
vn -0.1494 0.9757 0.1604
vn -0.1239 0.9167 0.3800
vn -0.0213 0.9530 0.3022
vn -0.1957 0.8807 0.4313
vn 0.1561 0.8021 0.5764
vn -0.0257 -0.9913 -0.1292
vn -0.0588 -0.9849 -0.1629
vn -0.0997 -0.9613 -0.2570
vn -0.0923 -0.9638 -0.2501
vn -0.0968 -0.9623 -0.2543
vn -0.1333 -0.9865 -0.0947
vn 0.0204 0.9824 0.1859
vn 0.0207 0.9824 0.1855
vn -0.0647 0.9657 0.2514
vn -0.0615 0.9693 0.2381
vn -0.0640 0.9673 0.2453
vn -0.4747 -0.0077 -0.8801
vn -0.4744 -0.0108 -0.8802
vn -0.4766 -0.0123 -0.8790
vn -0.4714 -0.0278 -0.8815
vn -0.8561 -0.2649 0.4437
vn 0.9125 -0.1806 0.3672
vn 0.4615 -0.0087 -0.8871
vn 0.4617 -0.0062 -0.8870
vn 0.4631 -0.0038 -0.8863
vn 0.4625 -0.0024 -0.8866
vn -0.8645 -0.3681 0.3422
vn 0.8278 -0.3442 0.4431
vn 0.0279 -0.9909 -0.1319
vn 0.0606 -0.9842 -0.1666
vn 0.1391 -0.9857 -0.0951
vn 0.0944 -0.9636 -0.2501
vn 0.0988 -0.9613 -0.2573
vn 0.0980 -0.9616 -0.2565
vn -0.0991 -0.9508 -0.2934
vn -0.0411 -0.9665 -0.2532
vn -0.0478 -0.9659 -0.2544
vn -0.0751 -0.9616 -0.2638
vn -0.0940 -0.9580 -0.2710
vn 0.1525 -0.8593 -0.4882
vn -0.2975 0.9544 -0.0247
vn -0.2618 0.9634 -0.0585
vn -0.1648 0.9773 -0.1335
vn -0.1643 0.9773 -0.1336
vn -0.2308 0.9692 -0.0856
vn -0.2929 0.9555 -0.0348
vn 0.0446 -0.9659 -0.2552
vn 0.0509 -0.9651 -0.2567
vn 0.1335 -0.8968 -0.4218
vn 0.0693 -0.9298 -0.3614
vn -0.1280 -0.8733 -0.4701
vn 0.0760 -0.9605 -0.2676
vn 0.0062 -0.9900 -0.1410
vn 0.4030 -0.0077 -0.9152
vn 0.4021 -0.0105 -0.9155
vn 0.4024 -0.0075 -0.9155
vn -0.3918 -0.0197 -0.9199
vn -0.3894 -0.0269 -0.9207
vn 0.2987 0.9527 -0.0558
vn 0.3158 0.9467 -0.0641
vn 0.3133 0.9475 -0.0640
vn 0.1701 0.9750 -0.1432
vn 0.1706 0.9749 -0.1431
vn 0.3061 0.9512 -0.0395
vn 0.0432 0.9702 0.2385
vn -0.0202 0.9823 0.1862
vn -0.0205 0.9824 0.1858
vn 0.0198 0.9755 0.2192
vn 0.0605 0.9691 0.2393
vn -0.3975 0.0027 0.9176
vn 0.3974 0.0139 0.9175
vn 0.0033 -0.9551 -0.2962
vn -0.0033 0.9551 0.2962
vn 0.0035 0.9548 0.2971
vn 0.8636 0.0000 0.5041
vn 0.8634 -0.3575 0.3560
vn -0.2846 0.9571 -0.0547
vn -0.5182 0.0000 -0.8553
vn 0.0002 -0.8435 -0.5372
vn 0.3084 0.9479 -0.0801
vn 0.5317 0.0000 -0.8469
vn -0.8570 -0.3591 0.3695
vn 0.0000 -0.8471 -0.5314
vn -0.0004 0.9405 0.3399
vn -0.1209 0.8953 0.4288
vn 0.1196 0.8933 0.4332
vn -0.5681 0.7720 0.2849
vn 0.5681 0.7720 0.2850
vn 0.2071 0.8747 0.4383
vn 0.1469 0.9755 0.1636
s 1
f 5/1/1 6/2/2 1/3/3
f 14/4/4 15/5/5 10/6/6
f 21/7/7 22/8/8 24/9/9
f 1/3/10 26/10/11 27/11/12
f 29/12/13 31/13/14 28/14/15
f 34/15/16 35/16/17 38/17/18
f 2/18/19 27/11/20 39/19/21
f 40/20/22 31/13/22 10/6/22
f 27/11/23 26/10/23 41/21/23
f 42/22/24 17/23/24 41/21/24
f 28/14/25 40/20/26 43/24/27
f 45/25/28 46/26/29 28/14/30
f 4/27/31 24/9/32 23/28/33
f 14/4/34 13/29/35 37/30/36
f 32/31/37 46/26/38 49/32/39
f 51/33/40 52/34/41 25/35/42
f 43/24/43 40/20/43 52/34/43
f 52/34/44 26/10/44 25/35/44
f 21/7/45 20/36/45 50/37/46
f 34/15/47 33/38/48 50/37/49
f 56/39/50 50/37/51 55/40/52
f 58/41/53 53/42/53 59/43/53
f 12/44/54 11/45/54 60/46/54
f 55/40/55 54/47/56 58/41/57
f 17/23/24 42/22/24 10/6/24
f 29/12/58 48/48/58 30/49/58
f 3/50/59 2/18/59 39/19/59
f 26/10/60 52/34/60 61/51/60
f 62/52/61 64/53/62 65/54/63
f 64/55/64 66/56/64 65/57/64
f 62/52/65 67/58/65 63/59/65
f 67/60/66 68/61/66 63/59/66
f 63/62/67 69/63/67 64/53/67
f 64/55/68 70/64/68 66/65/68
f 67/60/69 66/56/69 71/66/69
f 69/67/70 63/68/70 68/69/70
f 68/70/71 67/58/71 71/66/71
f 69/67/72 70/64/72 64/53/72
f 71/71/73 66/56/73 70/72/73
f 65/73/74 67/74/75 62/52/76
f 73/75/77 75/76/77 72/77/77
f 76/78/78 78/79/78 79/80/78
f 81/81/79 72/82/80 80/83/81
f 75/84/82 80/85/82 72/77/82
f 75/86/83 83/87/84 82/88/85
f 81/89/86 74/90/86 73/91/86
f 79/92/87 85/93/87 76/94/88
f 84/95/89 87/96/89 85/97/89
f 80/98/89 83/99/89 81/89/89
f 85/100/90 77/101/91 76/78/92
f 84/95/93 78/102/94 86/103/85
f 87/104/95 78/102/95 77/105/95
f 30/49/96 11/45/97 31/13/98
f 88/106/99 12/44/100 60/46/101
f 37/30/102 89/107/103 38/17/104
f 48/48/105 89/107/106 30/49/106
f 30/49/89 88/106/89 60/46/89
f 53/42/107 90/108/108 59/43/109
f 91/109/110 18/110/111 24/9/112
f 41/21/113 39/19/114 27/11/82
f 3/50/115 91/109/116 24/9/117
f 90/108/89 39/19/89 59/43/89
f 93/111/77 95/112/77 92/113/77
f 97/114/79 92/115/80 96/116/81
f 95/117/82 96/118/82 92/113/82
f 95/119/83 99/120/84 98/121/85
f 97/122/86 94/123/86 93/124/86
f 96/125/89 99/126/89 97/122/89
f 101/127/78 103/128/78 100/129/78
f 103/130/87 105/131/87 100/132/87
f 104/133/89 107/134/89 105/135/89
f 105/136/90 101/137/91 100/129/92
f 104/133/93 102/138/94 106/139/85
f 107/140/95 102/138/95 101/141/95
f 109/142/118 111/143/118 108/144/118
f 113/145/119 111/143/119 112/146/119
f 68/61/120 70/147/120 69/67/120
f 110/148/120 114/149/120 115/150/120
f 113/151/121 109/152/121 108/153/121
f 111/154/122 115/155/122 112/156/122
f 115/157/123 113/158/123 112/146/123
f 42/22/124 117/159/125 10/6/126
f 118/160/127 26/10/128 61/51/129
f 120/161/130 42/22/124 41/21/126
f 40/20/131 118/160/132 61/51/133
f 122/162/134 120/161/135 119/163/136
f 122/162/137 118/160/137 121/164/137
f 123/165/138 117/159/138 116/166/138
f 120/161/139 123/165/139 116/166/139
f 117/159/140 122/162/141 121/164/142
f 118/160/143 122/162/143 119/163/143
f 9/167/144 25/35/144 1/3/144
f 43/24/144 9/167/144 28/14/144
f 121/164/145 10/6/146 117/159/147
f 119/163/148 41/21/149 26/10/150
f 52/34/151 40/20/151 61/51/151
f 9/167/152 1/3/3 7/168/153
f 2/18/154 3/50/155 4/27/156
f 2/18/154 4/27/156 5/1/1
f 8/169/157 9/167/152 7/168/153
f 7/168/153 1/3/3 6/2/2
f 2/18/154 5/1/1 1/3/3
f 17/23/158 10/6/6 16/170/159
f 11/45/160 12/44/161 13/29/162
f 11/45/160 13/29/162 14/4/4
f 16/170/159 10/6/6 15/5/5
f 11/45/160 14/4/4 10/6/6
f 24/9/9 18/110/163 20/36/164
f 20/36/164 21/7/7 24/9/9
f 18/110/163 19/171/165 20/36/164
f 22/8/8 23/28/166 24/9/9
f 1/3/10 25/35/167 26/10/11
f 29/12/13 30/49/168 31/13/14
f 38/17/18 32/172/169 33/38/170
f 33/38/170 34/15/16 38/17/18
f 35/16/17 36/173/171 37/30/172
f 37/30/172 38/17/18 35/16/17
f 2/18/19 1/3/173 27/11/20
f 28/14/25 31/13/174 40/20/26
f 28/14/30 9/167/175 44/174/176
f 9/167/175 8/169/177 44/174/176
f 48/48/178 29/12/179 47/175/180
f 47/175/180 29/12/179 46/26/29
f 28/14/30 44/174/176 45/25/28
f 46/26/29 29/12/179 28/14/30
f 49/32/181 8/169/182 7/168/183
f 7/168/183 6/2/184 49/32/181
f 5/1/185 4/27/31 49/32/181
f 3/50/186 24/9/32 4/27/31
f 23/28/33 49/32/181 4/27/31
f 6/2/184 5/1/185 49/32/181
f 36/173/187 50/37/188 14/4/34
f 17/23/189 16/170/190 50/37/188
f 15/5/191 14/4/34 50/37/188
f 13/29/35 12/44/192 37/30/36
f 37/30/36 36/173/187 14/4/34
f 16/170/190 15/5/191 50/37/188
f 8/169/193 49/32/39 44/174/194
f 32/31/37 38/17/195 47/175/196
f 48/48/197 47/175/196 38/17/195
f 46/26/38 45/25/198 49/32/39
f 44/174/194 49/32/39 45/25/198
f 32/31/37 47/175/196 46/26/38
f 51/33/40 43/24/199 52/34/41
f 49/32/200 23/28/201 22/8/202
f 22/8/202 21/7/45 50/37/46
f 20/36/45 19/171/45 50/37/46
f 50/37/46 49/32/200 22/8/202
f 49/32/203 50/37/49 33/38/48
f 50/37/49 36/173/47 35/16/47
f 33/38/48 32/172/204 49/32/203
f 50/37/49 35/16/47 34/15/47
f 18/110/205 53/42/206 54/47/207
f 54/47/207 55/40/52 18/110/205
f 56/39/50 57/176/208 50/37/51
f 17/23/209 50/37/51 57/176/208
f 19/171/210 18/110/205 55/40/52
f 55/40/52 50/37/51 19/171/210
f 58/41/57 41/21/211 55/40/55
f 17/23/212 57/176/213 41/21/211
f 41/21/211 57/176/213 56/39/214
f 54/47/56 53/42/215 58/41/57
f 41/21/211 56/39/214 55/40/55
f 62/52/61 63/68/216 64/53/62
f 65/73/74 66/65/217 67/74/75
f 73/75/77 74/90/77 75/76/77
f 76/78/78 77/177/78 78/79/78
f 81/81/79 73/178/218 72/82/80
f 75/84/82 82/179/82 80/85/82
f 75/86/83 74/180/219 83/87/84
f 81/89/86 83/181/86 74/90/86
f 79/92/87 84/95/87 85/93/87
f 84/95/89 86/182/89 87/96/89
f 80/98/89 82/179/89 83/99/89
f 85/100/90 87/183/81 77/101/91
f 84/95/93 79/184/220 78/102/94
f 87/104/95 86/182/95 78/102/95
f 10/6/221 31/13/98 11/45/97
f 30/49/96 60/46/222 11/45/97
f 88/106/99 37/30/223 12/44/100
f 37/30/102 88/106/224 89/107/103
f 48/48/105 38/17/225 89/107/106
f 30/49/89 89/107/89 88/106/89
f 53/42/107 18/110/226 90/108/108
f 91/109/110 90/108/227 18/110/111
f 41/21/113 59/43/228 39/19/114
f 3/50/115 39/19/229 91/109/116
f 90/108/89 91/109/89 39/19/89
f 93/111/77 94/123/77 95/112/77
f 97/114/79 93/185/218 92/115/80
f 95/117/82 98/186/82 96/118/82
f 95/119/83 94/187/219 99/120/84
f 97/122/86 99/188/86 94/123/86
f 96/125/89 98/186/89 99/126/89
f 101/127/78 102/189/78 103/128/78
f 103/130/87 104/133/87 105/131/87
f 104/133/89 106/190/89 107/134/89
f 105/136/90 107/191/81 101/137/91
f 104/133/93 103/192/220 102/138/94
f 107/140/95 106/190/95 102/138/95
f 109/142/118 110/193/118 111/143/118
f 113/145/119 108/194/119 111/143/119
f 68/61/120 71/66/120 70/147/120
f 110/148/120 109/142/120 114/149/120
f 113/151/121 114/195/121 109/152/121
f 111/154/122 110/196/122 115/155/122
f 115/157/123 114/149/123 113/158/123
f 42/22/124 116/166/230 117/159/125
f 118/160/127 119/163/231 26/10/128
f 120/161/130 116/166/230 42/22/124
f 40/20/131 121/164/232 118/160/132
f 122/162/134 123/165/233 120/161/135
f 117/159/140 123/165/234 122/162/141
f 9/167/144 51/33/144 25/35/144
f 43/24/144 51/33/144 9/167/144
f 121/164/145 40/20/235 10/6/146
f 119/163/148 120/161/236 41/21/149
